<?xml version="1.0" encoding="utf-8"?>
<!-- Generator: Adobe Illustrator 15.0.0, SVG Export Plug-In  -->
<!DOCTYPE svg PUBLIC "-//W3C//DTD SVG 1.1//EN" "http://www.w3.org/Graphics/SVG/1.1/DTD/svg11.dtd" [
	<!ENTITY ns_flows "http://ns.adobe.com/Flows/1.0/">
]>
<svg version="1.1"
	 xmlns="http://www.w3.org/2000/svg" xmlns:xlink="http://www.w3.org/1999/xlink" xmlns:a="http://ns.adobe.com/AdobeSVGViewerExtensions/3.0/"
	 x="0px" y="0px" width="222px" height="589px" viewBox="-1 0 222 589" overflow="visible" enable-background="new -1 0 222 589"
	 xml:space="preserve">
<defs>
</defs>
<g>
	<g opacity="0.5">
		<path fill-rule="evenodd" clip-rule="evenodd" fill="#FFFFFF" d="M0,511.4c2.2,26.2,5,51.8,8.9,76.3c63.2-3.1,133.8-2.5,199.2,1
			c14.6-58.7,15.7-123.4,4-182.3c-3.6-18-10.2-34.8-14.9-52.5c-10.1-38.2-15.2-77.1-8.9-117.9c4.2-27.2,9-56.9,14.9-86.2
			c1.8-9,6.6-19.7,5.9-26.8c-0.7-7.4-8.8-17.5-9.9-29.7c-1.2-13.1,0.4-23.3,2-35.7c-8.6-4.3-20.1-5.7-29.7-8.9
			c-9.5,24.8-10.5,60.7-26.8,79.3c-17.4,19.8-55.8,21-73.3-1c-15-18.9-16.3-53.4-25.8-77.3c-10,1.9-19.1,4.7-28.7,6.9
			c0.8,18.9,2.9,48.6-6.9,62.4c6.5,28.1,12.7,57.1,17.8,86.2c5.3,29.7,12.4,59.7,7.9,91.2C27.5,353.7,0.1,403.4,0,466.8
			C0,311.2,0,155.6,0,0c73.7,0,147.3,0,221,0c0,196.5,0,393.1,0,589.6c-73.7,0-147.3,0-221,0C0,563.5,0,537.4,0,511.4z"/>
		<path fill-rule="evenodd" clip-rule="evenodd" d="M0,511.4c0-14.9,0-29.7,0-44.6c0.1-63.4,27.5-113.1,35.7-170.5
			c4.5-31.5-2.7-61.5-7.9-91.2C22.6,176,16.5,147,9.9,118.9c9.9-13.9,7.7-43.6,6.9-62.4c9.6-2.3,18.8-5,28.7-6.9
			c9.5,23.9,10.7,58.4,25.8,77.3c17.5,22,56,20.8,73.3,1c16.3-18.6,17.2-54.5,26.8-79.3c9.7,3.2,21.2,4.6,29.7,8.9
			c-1.6,12.4-3.1,22.6-2,35.7c1.1,12.2,9.2,22.3,9.9,29.7c0.6,7.1-4.1,17.8-5.9,26.8c-5.9,29.3-10.7,59-14.9,86.2
			c-6.3,40.8-1.2,79.7,8.9,117.9c4.7,17.7,11.3,34.5,14.9,52.5c11.7,59,10.6,123.6-4,182.3c-65.3-3.5-136-4.1-199.2-1
			C5,563.2,2.2,537.6,0,511.4z"/>
	</g>
	<g>
	</g>
</g>
</svg>
