<?xml version="1.0" encoding="utf-8"?>
<!-- Generator: Adobe Illustrator 15.0.0, SVG Export Plug-In  -->
<!DOCTYPE svg PUBLIC "-//W3C//DTD SVG 1.1//EN" "http://www.w3.org/Graphics/SVG/1.1/DTD/svg11.dtd" [
	<!ENTITY ns_flows "http://ns.adobe.com/Flows/1.0/">
]>
<svg version="1.1"
	 xmlns="http://www.w3.org/2000/svg" xmlns:xlink="http://www.w3.org/1999/xlink" xmlns:a="http://ns.adobe.com/AdobeSVGViewerExtensions/3.0/"
	 x="0px" y="0px" width="612px" height="792px" viewBox="-277.1 -367.3 612 792"
	 overflow="visible" enable-background="new -277.1 -367.3 612 792" xml:space="preserve">
<defs>
</defs>
<path fill-rule="evenodd" clip-rule="evenodd" fill="#FFFFFF" d="M4.6,0C2,7.3,0.7,15.7,0,24.8C0,16.5,0,8.3,0,0C1.5,0,3.1,0,4.6,0z
	"/>
<path fill-rule="evenodd" clip-rule="evenodd" d="M4.6,0C5.1,0,5.5,0,6,0c15,1.1,32.7,1.1,47.6,0c0.6,0,1.3,0,1.9,0
	c5.5,14.2,5.4,37.3,1.9,53.5c-3.8,1.1-9.3,0.7-13.8,1.3c-9.1,0-18.2,0-27.3,0c-4.3-0.6-9.9,0-13.5-1.3c-1.5-6.2-2-13.3-2.7-20.3
	c0-2.8,0-5.7,0-8.5C0.7,15.7,2,7.3,4.6,0z"/>
<path fill-rule="evenodd" clip-rule="evenodd" fill="#FFFFFF" d="M6,0c15.9,0,31.8,0,47.6,0C38.6,1.1,20.9,1.1,6,0z"/>
<path fill-rule="evenodd" clip-rule="evenodd" fill="#FFFFFF" d="M55.5,0c1.5,0,3.1,0,4.6,0c0,18.3,0,36.5,0,54.8
	c-5.5,0-11,0-16.5,0c4.5-0.5,10-0.1,13.8-1.3C60.9,37.3,61,14.2,55.5,0z"/>
<path fill-rule="evenodd" clip-rule="evenodd" fill="#FFFFFF" d="M0,33.3c0.7,7,1.2,14,2.7,20.3c3.6,1.2,9.2,0.7,13.5,1.3
	c-5.4,0-10.8,0-16.2,0C0,47.6,0,40.4,0,33.3z"/>
</svg>
